<svg width="120" height="121" viewBox="0 0 120 121" fill="none" xmlns="http://www.w3.org/2000/svg">
<g clip-path="url(#clip0_1005_6517)">
<path opacity="0.5" fill-rule="evenodd" clip-rule="evenodd" d="M60 0.425781C93 0.425781 120 27.4258 120 60.4258C120 93.4258 93 120.426 60 120.426C27 120.426 0 93.4258 0 60.4258C0 27.4258 27 0.425781 60 0.425781Z" fill="url(#paint0_radial_1005_6517)"/>
<path d="M60.499 32.8574C44.9963 32.8574 32.4297 45.4255 32.4297 60.9267H40.6232C41.1949 60.9267 41.5693 61.5423 41.2888 62.0405C40.7599 62.9802 40.4766 64.0764 40.5264 65.2428C40.6557 68.2678 43.0767 70.7586 46.0975 70.9666C49.6044 71.2082 52.5243 68.4348 52.5243 64.9795C52.5243 63.9181 52.2486 62.9211 51.7651 62.0561C51.4821 61.55 51.839 60.9267 52.4188 60.9267H60.499V32.8574Z" fill="#FA4616"/>
<path d="M88.5681 60.9267C88.5681 45.4255 76 32.8574 60.4988 32.8574V41.0509C60.4988 41.6226 59.8833 41.997 59.3851 41.7165C58.4454 41.1875 57.3491 40.9042 56.1828 40.954C53.1577 41.0834 50.6669 43.5045 50.4589 46.5251C50.2175 50.0321 52.9908 52.9518 56.446 52.9518C57.5074 52.9518 58.5044 52.6762 59.3694 52.1926C59.8755 51.9096 60.4988 52.2666 60.4988 52.8464V60.9267H88.5681Z" fill="#243746"/>
<path d="M88.5683 60.9267H82.8871C82.8871 47.3711 73.2787 36.0602 60.499 33.4328V32.8574C76.0003 32.8574 88.5683 45.4255 88.5683 60.9267Z" fill="#0D263B"/>
<path d="M79.7092 59.8139C80.2382 58.8742 80.5215 57.7779 80.4717 56.6116C80.3424 53.5865 77.9214 51.0957 74.9006 50.8877C71.3936 50.6462 68.4738 53.4195 68.4738 56.8748C68.4738 57.9362 68.7494 58.9332 69.233 59.7982C69.516 60.3043 69.159 60.9276 68.5792 60.9276H60.499V88.9969C76.0003 88.9969 88.5683 76.4303 88.5683 60.9276H80.3749C79.8031 60.9276 79.4287 60.3121 79.7092 59.8139Z" fill="#FA4616"/>
<path d="M88.5683 60.9277C88.5683 76.4306 76.0003 88.9971 60.499 88.9971V88.4217C73.2787 85.7943 82.8871 74.4834 82.8871 60.9277H88.5683Z" fill="#FF653C"/>
<path d="M70.5401 75.3191C70.3366 78.34 67.85 80.7654 64.8253 80.9001C63.6571 80.9521 62.5575 80.6694 61.6154 80.1397C61.1159 79.8589 60.4989 80.2344 60.4989 80.8074V88.9971C44.9961 88.9971 32.4296 76.4306 32.4296 60.9277H40.6195C41.1918 60.9277 41.5668 61.5438 41.2864 62.0428C40.7578 62.9833 40.4756 64.0811 40.5262 65.2476C40.6573 68.2713 43.0779 70.7599 46.0973 70.9682C49.6038 71.2102 52.5241 68.4368 52.5241 64.9802C52.5241 63.9192 52.2484 62.922 51.7652 62.0568C51.4826 61.5507 51.8394 60.9277 52.4192 60.9277H60.499V69.008C60.499 69.5877 61.1223 69.9447 61.6284 69.6617C62.4935 69.1782 63.4907 68.9025 64.5515 68.9025C68.0046 68.9025 70.7759 71.8171 70.5401 75.3191Z" fill="#243746"/>
<path d="M30.0947 82.5014C31.5103 82.5014 32.6579 81.3538 32.6579 79.9382C32.6579 78.5226 31.5103 77.375 30.0947 77.375C28.6791 77.375 27.5315 78.5226 27.5315 79.9382C27.5315 81.3538 28.6791 82.5014 30.0947 82.5014Z" fill="white"/>
<path d="M41.9903 94.3978C43.4059 94.3978 44.5535 93.2503 44.5535 91.8347C44.5535 90.4191 43.4059 89.2715 41.9903 89.2715C40.5747 89.2715 39.4271 90.4191 39.4271 91.8347C39.4271 93.2503 40.5747 94.3978 41.9903 94.3978Z" fill="white"/>
<path d="M42.1899 79.74C39.547 77.0971 35.2621 77.0971 32.6191 79.74L30.8916 81.4675C28.2487 84.1103 28.2487 88.3953 30.8916 91.0383C33.5344 93.6812 37.8194 93.6812 40.4624 91.0383L42.1899 89.3108C44.8328 86.6678 44.8328 82.3828 42.1899 79.74Z" fill="white"/>
<path d="M40.4626 91.0384L42.1896 89.3113C44.8334 86.6676 44.8324 82.3831 42.1896 79.7403C41.7938 79.3445 41.3605 79.0064 40.9004 78.7305C42.4734 81.3322 42.1365 84.7642 39.8895 87.0111L38.1625 88.7381C36.8412 90.0594 35.1096 90.7202 33.376 90.7202C32.1632 90.7202 30.9527 90.3965 29.8819 89.7492C30.1579 90.2093 30.496 90.6426 30.8918 91.0384C32.213 92.3597 33.9446 93.0204 35.6772 93.0215C37.4097 93.0204 39.1413 92.3597 40.4626 91.0384Z" fill="white"/>
<path d="M40.7372 93.8939C39.8738 92.8403 38.0654 90.8265 35.9811 89.6342C34.4993 88.7865 32.6287 89.0592 31.4215 90.2664L29.5951 92.0928C28.6691 93.0188 28.6691 94.5202 29.5951 95.4462L30.8565 96.7076C33.1474 98.9985 36.8616 98.9985 39.1525 96.7076L40.673 95.1871C41.0238 94.8361 41.0518 94.2777 40.7372 93.8939Z" fill="black"/>
<path d="M39.1535 96.7072L40.6741 95.1867C41.0242 94.8366 41.0524 94.2777 40.7367 93.8934C40.1423 93.1664 39.0983 91.9848 37.8223 90.9297C37.9108 91.0353 37.993 91.1323 38.068 91.2244C38.3823 91.6076 38.3542 92.1665 38.0041 92.5164L36.4836 94.0369C34.4877 96.0328 31.4149 96.2906 29.1428 94.812C29.2534 95.0403 29.4044 95.2554 29.5947 95.4456L30.8561 96.707C33.1477 98.9989 36.8618 98.9989 39.1535 96.7072Z" fill="black"/>
<path d="M28.2137 81.0006C29.4138 81.9715 31.9074 84.1668 33.3627 86.711C34.3621 88.4578 34.0405 90.6627 32.6176 92.0858L30.4647 94.2386C29.3731 95.3302 27.6033 95.3302 26.5117 94.2386L25.0247 92.7517C22.3243 90.0512 22.3243 85.673 25.0247 82.9725L26.9271 81.0701C27.2754 80.7218 27.8308 80.6908 28.2137 81.0006Z" fill="black"/>
<path d="M30.4634 94.2385L32.6164 92.0855C34.0399 90.662 34.3616 88.4562 33.3632 86.711C32.1608 84.6095 30.251 82.7464 28.9478 81.6152C29.5804 82.3559 30.1846 83.1688 30.6723 84.0201C31.672 85.7666 31.3502 87.9724 29.9268 89.3957L27.7738 91.5488C26.8429 92.4797 25.4168 92.6161 24.3411 91.9578C24.545 92.2353 24.7733 92.5006 25.024 92.7511L26.5112 94.2384C27.603 95.3304 29.3728 95.3291 30.4634 94.2385Z" fill="black"/>
<path d="M79.5108 33.0834C80.9264 33.0834 82.074 31.9358 82.074 30.5202C82.074 29.1046 80.9264 27.957 79.5108 27.957C78.0952 27.957 76.9476 29.1046 76.9476 30.5202C76.9476 31.9358 78.0952 33.0834 79.5108 33.0834Z" fill="white"/>
<path d="M91.4071 44.9799C92.8227 44.9799 93.9702 43.8323 93.9702 42.4167C93.9702 41.0011 92.8227 39.8535 91.4071 39.8535C89.9914 39.8535 88.8439 41.0011 88.8439 42.4167C88.8439 43.8323 89.9914 44.9799 91.4071 44.9799Z" fill="white"/>
<path d="M79.3122 42.6164C76.6694 39.9736 76.6694 35.6886 79.3122 33.0456L81.0397 31.3181C83.6826 28.6752 87.9675 28.6752 90.6106 31.3181C93.2534 33.961 93.2534 38.2459 90.6106 40.8889L88.8831 42.6164C86.2402 45.2593 81.9552 45.2593 79.3122 42.6164Z" fill="white"/>
<path d="M90.6107 40.8893L88.8836 42.6163C86.2399 45.2601 81.9554 45.2591 79.3127 42.6163C78.9169 42.2205 78.5788 41.7872 78.3028 41.3271C80.9045 42.9001 84.3365 42.5632 86.5834 40.3163L88.3104 38.5892C89.6317 37.2679 90.2925 35.5363 90.2925 33.8027C90.2925 32.5899 89.9688 31.3794 89.3215 30.3086C89.7816 30.5846 90.2149 30.9227 90.6107 31.3185C91.932 32.6397 92.5928 34.3713 92.5938 36.104C92.5928 37.8364 91.932 39.568 90.6107 40.8893Z" fill="white"/>
<path d="M93.4664 41.1647C92.4128 40.3013 90.3991 38.493 89.2067 36.4087C88.359 34.9268 88.6317 33.0562 89.8389 31.849L91.6653 30.0227C92.5913 29.0966 94.0927 29.0966 95.0187 30.0227L96.2801 31.2841C98.571 33.5749 98.571 37.2892 96.2801 39.58L94.7596 41.1006C94.4088 41.4514 93.8504 41.4792 93.4664 41.1647Z" fill="black"/>
<path d="M96.2805 39.5791L94.76 41.0996C94.4099 41.4497 93.851 41.4778 93.4667 41.1623C92.7397 40.5679 91.5581 39.5239 90.503 38.2478C90.6086 38.3363 90.7056 38.4185 90.7977 38.4935C91.1809 38.808 91.7398 38.7797 92.0897 38.4296L93.6102 36.9091C95.6061 34.9133 95.8639 31.8405 94.3853 29.5684C94.6136 29.679 94.8287 29.83 95.0189 30.0203L96.2803 31.2816C98.5722 33.5732 98.5722 37.2873 96.2805 39.5791Z" fill="black"/>
<path d="M80.5721 28.6401C81.543 29.8402 83.7383 32.3338 86.2825 33.7891C88.0293 34.7885 90.2342 34.4669 91.6573 33.044L93.8102 30.8911C94.9018 29.7995 94.9018 28.0297 93.8102 26.9381L92.3233 25.4511C89.6229 22.7507 85.2446 22.7507 82.5442 25.4511L80.6418 27.3535C80.2933 27.7018 80.2623 28.2572 80.5721 28.6401Z" fill="black"/>
<path d="M93.811 30.8899L91.658 33.0429C90.2345 34.4664 88.0287 34.7881 86.2835 33.7897C84.182 32.5873 82.3189 30.6775 81.1877 29.3744C81.9284 30.0069 82.7414 30.6111 83.5926 31.0988C85.3391 32.0985 87.5449 31.7767 88.9682 30.3533L91.1213 28.2003C92.0522 27.2694 92.1886 25.8434 91.5303 24.7676C91.8078 24.9715 92.0731 25.1999 92.3236 25.4505L93.8109 26.9377C94.9029 28.0295 94.9016 29.7993 93.811 30.8899Z" fill="black"/>
<path d="M46.4677 38.8398L38.4131 46.8944C36.5385 48.769 33.4991 48.769 31.6246 46.8944L26.0731 41.343C21.9743 37.2442 21.9743 30.5988 26.0731 26.4999C30.1719 22.4011 36.8173 22.4011 40.9162 26.4999L46.4677 32.0513C48.3422 33.9259 48.3422 36.9653 46.4677 38.8398Z" fill="black"/>
<path d="M40.9173 26.4998L46.4687 32.0512C48.3433 33.9258 48.3433 36.9653 46.4687 38.8397L43.9978 41.3106C45.8724 39.4361 45.8724 36.3965 43.9978 34.5221L38.4464 28.9707C36.3968 26.9209 33.7108 25.8955 31.0249 25.8967C28.8899 25.8967 26.7549 26.544 24.9414 27.8388C25.2751 27.3699 25.653 26.9209 26.0743 26.4998C28.1239 24.45 30.8087 23.4258 33.4958 23.4258C36.1805 23.4258 38.8675 24.4501 40.9173 26.4998Z" fill="black"/>
<path d="M42.4638 33.1146C43.8794 33.1146 45.027 31.9671 45.027 30.5515C45.027 29.1359 43.8794 27.9883 42.4638 27.9883C41.0482 27.9883 39.9006 29.1359 39.9006 30.5515C39.9006 31.9671 41.0482 33.1146 42.4638 33.1146Z" fill="white"/>
<path d="M40.9347 30.9053L42.8062 32.7767C45.4309 35.4014 45.545 39.6776 42.9629 42.3442C40.326 45.0674 35.9837 45.0939 33.3137 42.4238L31.3649 40.4751C31.2853 40.3955 31.1013 40.2079 30.9179 40.0169C30.6552 39.7432 30.6279 39.3217 30.8488 39.0133C32.9498 36.0813 33.3489 33.7323 32.7705 31.6535C33.9965 31.4651 35.8408 30.9321 37.8427 29.4722C38.0545 29.3177 38.3318 29.2791 38.5767 29.3727C39.4364 29.7012 40.2418 30.2124 40.9347 30.9053Z" fill="white"/>
<path d="M40.934 30.9056L42.8052 32.7768C45.4302 35.4018 45.5443 39.6774 42.9615 42.3444C42.5613 42.7579 42.1223 43.1082 41.6556 43.3975C43.2763 40.7637 42.8894 37.2463 40.6125 34.9694L38.0763 32.433C37.3834 31.7401 36.5776 31.2292 35.7173 30.9011C35.6364 30.869 35.5521 30.8535 35.4668 30.8523C36.2095 30.5242 37.0109 30.0774 37.8423 29.4721C38.054 29.318 38.3301 29.2792 38.5762 29.3723C39.4353 29.7018 40.2412 30.2127 40.934 30.9056Z" fill="white"/>
<path d="M84.5921 85.8639L77.5929 92.863L80.0815 95.3517C84.1803 99.4504 90.8257 99.4504 94.9246 95.3517C99.0234 91.2529 99.0234 84.6075 94.9246 80.5087L92.0015 77.5856C90.127 75.711 87.0876 75.711 85.213 77.5856L80.7634 82.0352L84.5921 85.8639Z" fill="black"/>
<path d="M82.5513 92.8811L80.0629 90.3926L77.592 92.8635L80.0805 95.3519C82.1301 97.4016 84.8172 98.4258 87.5019 98.4258C90.189 98.4258 92.8738 97.4016 94.9234 95.3518C95.3447 94.9305 95.7226 94.4817 96.0563 94.0126C94.2428 95.3074 92.1077 95.9547 89.9728 95.9547C87.2869 95.9561 84.601 94.9307 82.5513 92.8811Z" fill="black"/>
<path d="M78.5321 93.8646C79.9477 93.8646 81.0952 92.7171 81.0952 91.3015C81.0952 89.8859 79.9477 88.7383 78.5321 88.7383C77.1164 88.7383 75.9689 89.8859 75.9689 91.3015C75.9689 92.7171 77.1164 93.8646 78.5321 93.8646Z" fill="white"/>
<path d="M80.0611 90.9467L78.1896 89.0752C75.5649 86.4505 75.4508 82.1744 78.0328 79.5078C80.6697 76.7846 85.0121 76.7581 87.682 79.4281L89.6309 81.3769C89.7104 81.4564 89.8944 81.6441 90.0778 81.8351C90.3406 82.1087 90.3678 82.5303 90.1469 82.8387C88.0461 85.7707 87.6469 88.1197 88.2252 90.1985C86.9993 90.3869 85.1549 90.9199 83.153 92.3799C82.9412 92.5345 82.6639 92.573 82.419 92.4794C81.5593 92.1508 80.7539 91.6397 80.0611 90.9467Z" fill="white"/>
<path d="M80.0609 90.947L78.1897 89.0758C75.5647 86.4508 75.4506 82.1752 78.0334 79.5082C78.4336 79.0946 78.8726 78.7444 79.3393 78.4551C77.7186 81.0889 78.1055 84.6062 80.3825 86.8832L82.9187 89.4196C83.6116 90.1124 84.4174 90.6234 85.2777 90.9515C85.3585 90.9836 85.4429 90.9991 85.5282 91.0003C84.7855 91.3284 83.9841 91.7752 83.1526 92.3805C82.941 92.5346 82.6648 92.5734 82.4187 92.4802C81.5596 92.1508 80.7538 91.6398 80.0609 90.947Z" fill="white"/>
</g>
<defs>
<radialGradient id="paint0_radial_1005_6517" cx="0" cy="0" r="1" gradientUnits="userSpaceOnUse" gradientTransform="translate(60 60.4258) rotate(90) scale(60)">
<stop stop-color="#FA4616" stop-opacity="0.36"/>
<stop offset="1" stop-color="#F9FBF8"/>
</radialGradient>
<clipPath id="clip0_1005_6517">
<rect width="120" height="120" fill="white" transform="translate(0 0.425781)"/>
</clipPath>
</defs>
</svg>
