<svg width="121" height="120" viewBox="0 0 121 120" fill="none" xmlns="http://www.w3.org/2000/svg">
<g clip-path="url(#clip0_773_7427)">
<path opacity="0.5" d="M60.5244 120C93.6615 120 120.524 93.1371 120.524 60C120.524 26.8629 93.6615 0 60.5244 0C27.3873 0 0.524414 26.8629 0.524414 60C0.524414 93.1371 27.3873 120 60.5244 120Z" fill="url(#paint0_radial_773_7427)"/>
<rect width="28" height="36" transform="translate(46.5244 42)" fill="white"/>
<rect width="34" height="19" transform="translate(43.5244 42)" fill="white"/>
<g clip-path="url(#clip1_773_7427)">
<path fill-rule="evenodd" clip-rule="evenodd" d="M71.6625 83.0448H49.3866C47.6731 83.0448 46.311 81.6388 46.311 79.9253C46.311 71.7091 44.29 68.5017 42.3128 65.4262C40.5553 62.5703 38.8418 59.8901 38.8418 54.0026C38.8418 42.0518 48.5958 32.3418 60.5026 32.3418C72.4534 32.3418 82.1634 42.0518 82.1634 54.0026C82.1634 59.8901 80.4938 62.5703 78.6924 65.4262C76.7592 68.5017 74.7381 71.7091 74.7381 79.9253C74.7381 81.6388 73.3321 83.0448 71.6625 83.0448ZM49.3866 49.1256L53.5167 50.3998H53.5606L61.4253 52.8163L69.246 50.3998H69.29L73.42 49.1256L61.4253 45.4349L49.3866 49.1256ZM46.4429 58.9675C44.9929 58.9675 43.8066 57.7812 43.8066 56.3313V56.1994C43.8066 55.0571 44.5536 54.0905 45.5641 53.739V49.1256C45.5641 49.0817 45.6081 49.0817 45.6081 49.0378V48.9938V48.9499V48.9059V48.862H45.652V48.8181V48.7741V48.7302H45.6959V48.6863L45.7399 48.6423V48.5984H45.7838V48.5545H45.8277V48.5105H45.8717V48.4666H45.9156V48.4226H45.9595L46.0035 48.3787H46.0474V48.3348H46.0914C46.1353 48.3348 46.1792 48.2908 46.2232 48.2908L61.1617 43.7214C61.3374 43.6775 61.5132 43.6775 61.645 43.7214L76.6274 48.2908C76.9789 48.4226 77.2425 48.7302 77.2425 49.1256C77.2425 49.5211 76.9789 49.8286 76.6274 49.9604L70.3884 51.8497V59.1432C70.3884 59.6265 69.9929 60.0219 69.5096 60.0219H53.297C52.8137 60.0219 52.4182 59.6265 52.4182 59.1432V51.8497L47.3216 50.268V53.739C48.3321 54.0905 49.0791 55.0571 49.0791 56.1994V56.3313C49.0791 57.7812 47.8928 58.9675 46.4429 58.9675ZM68.6309 52.3769L61.645 54.5298C61.5571 54.5738 61.5132 54.5738 61.4253 54.5738C61.3374 54.5738 61.2495 54.5738 61.1617 54.5298L54.1757 52.3769V58.2645H68.6309V52.3769ZM46.4429 55.3207C45.9595 55.3207 45.5202 55.7161 45.5202 56.1994V56.3313C45.5202 56.8146 45.9595 57.21 46.4429 57.21C46.9701 57.21 47.3655 56.8146 47.3655 56.3313V56.1994C47.3655 55.7161 46.9701 55.3207 46.4429 55.3207ZM60.5026 77.1573C60.2829 77.1573 60.0632 77.0694 59.8875 76.8936L54.659 71.6212C54.3954 71.4016 54.3075 71.0061 54.4393 70.6986C54.5711 70.391 54.9226 70.1713 55.2741 70.1713H57.0316V63.5808C57.0316 63.0975 57.427 62.7021 57.9103 62.7021H63.1388C63.5782 62.7021 63.9736 63.0975 63.9736 63.5808V70.1713H65.775C66.1265 70.1713 66.4341 70.391 66.5659 70.6986C66.6977 71.0061 66.6537 71.4016 66.3901 71.6212L61.1177 76.8936C60.942 77.0694 60.7223 77.1573 60.5026 77.1573ZM57.3392 71.8849L60.5026 75.0922L63.71 71.8849H63.1388C62.6555 71.8849 62.2601 71.4894 62.2601 71.0061V64.4595H58.7891V71.0061C58.7891 71.4894 58.3936 71.8849 57.9103 71.8849H57.3392Z" fill="#FA4616"/>
<path fill-rule="evenodd" clip-rule="evenodd" d="M68.7189 90.2503H52.3305C50.6169 90.2503 49.2549 88.8882 49.2549 87.1747C49.2549 85.5051 50.6169 84.1431 52.3305 84.1431H68.7189C70.3885 84.1431 71.7944 85.5051 71.7944 87.1747C71.7944 88.8882 70.3885 90.2503 68.7189 90.2503Z" fill="#243746"/>
<path fill-rule="evenodd" clip-rule="evenodd" d="M64.1054 97.4998H56.9437C55.2302 97.4998 53.8682 96.0938 53.8682 94.4242C53.8682 92.7107 55.2302 91.3486 56.9437 91.3486H64.1054C65.819 91.3486 67.181 92.7107 67.181 94.4242C67.181 96.0938 65.819 97.4998 64.1054 97.4998Z" fill="#243746"/>
<path fill-rule="evenodd" clip-rule="evenodd" d="M60.5028 28.2996C60.0195 28.2996 59.668 27.9042 59.668 27.4649V23.3787C59.668 22.8954 60.0195 22.5 60.5028 22.5C60.9861 22.5 61.3815 22.8954 61.3815 23.3787V27.4649C61.3815 27.9042 60.9861 28.2996 60.5028 28.2996Z" fill="#FA4616"/>
<path fill-rule="evenodd" clip-rule="evenodd" d="M74.6501 32.078C74.5183 32.078 74.3865 32.078 74.2547 31.9901C73.8153 31.7265 73.6835 31.1992 73.9032 30.8038L75.9682 27.2889C76.1879 26.8495 76.7151 26.7177 77.1545 26.9374C77.5499 27.201 77.6817 27.7282 77.4621 28.1237L75.397 31.6825C75.2652 31.9462 74.9577 32.078 74.6501 32.078Z" fill="#FA4616"/>
<path fill-rule="evenodd" clip-rule="evenodd" d="M85.0188 42.4474C84.7112 42.4474 84.4476 42.3156 84.2718 42.008C84.0522 41.6126 84.184 41.0854 84.5794 40.8657L88.1383 38.8007C88.5337 38.581 89.0609 38.7128 89.3246 39.1082C89.5443 39.5476 89.4124 40.0748 88.9731 40.2945L85.4581 42.3595C85.3263 42.4035 85.1506 42.4474 85.0188 42.4474Z" fill="#FA4616"/>
<path fill-rule="evenodd" clip-rule="evenodd" d="M46.3553 32.078C46.0917 32.078 45.7841 31.9462 45.6084 31.6825L43.5873 28.1237C43.3236 27.7282 43.4994 27.201 43.8948 26.9374C44.2903 26.7177 44.8175 26.8495 45.0811 27.2889L47.1022 30.8038C47.3658 31.1992 47.234 31.7265 46.7946 31.9901C46.6628 32.078 46.531 32.078 46.3553 32.078Z" fill="#FA4616"/>
<path fill-rule="evenodd" clip-rule="evenodd" d="M36.0298 42.4474C35.854 42.4474 35.7222 42.4035 35.5904 42.3595L32.0316 40.2945C31.6361 40.0748 31.5043 39.5476 31.724 39.1082C31.9876 38.7128 32.5149 38.581 32.9103 38.8007L36.4252 40.8657C36.8646 41.0854 36.9964 41.6126 36.7767 42.008C36.601 42.3156 36.2934 42.4474 36.0298 42.4474Z" fill="#FA4616"/>
</g>
</g>
<defs>
<radialGradient id="paint0_radial_773_7427" cx="0" cy="0" r="1" gradientUnits="userSpaceOnUse" gradientTransform="translate(60.5244 60) rotate(90) scale(60)">
<stop stop-color="#FA4616" stop-opacity="0.36"/>
<stop offset="1" stop-color="#F9FBF8"/>
</radialGradient>
<clipPath id="clip0_773_7427">
<rect width="120" height="120" fill="white" transform="translate(0.524414)"/>
</clipPath>
<clipPath id="clip1_773_7427">
<rect width="75" height="75" fill="white" transform="translate(23.0244 22.5)"/>
</clipPath>
</defs>
</svg>
